<svg xmlns="http://www.w3.org/2000/svg" viewBox="0 0 80.48 63.08"><defs><style>.cls-1{fill:#fff;}</style></defs><g id="Layer_2" data-name="Layer 2"><g id="Layer_1-2" data-name="Layer 1"><path class="cls-1" d="M52.12,44a2.58,2.58,0,0,0-3.65,0L42,50.5a1.29,1.29,0,0,1-1.82,0L12.68,23.73a1.29,1.29,0,0,1,.87-2.21l5.56-.14a2.58,2.58,0,0,0,2.52-2.44l.27-5a1.29,1.29,0,0,1,2.2-.84l7.73,7.73a2.58,2.58,0,0,0,3.65,0l2.77-2.76a2.6,2.6,0,0,0,0-3.65L24.54.76a2.58,2.58,0,0,0-3.65,0L18,3.7l-1,1h0l-.52.76h0a2.53,2.53,0,0,0-.22.77l-.86,7.59A1.31,1.31,0,0,1,14.22,15L5.33,16.11a1.24,1.24,0,0,0-.72.34l-.85.81a2.83,2.83,0,0,0-.23.28,3.2,3.2,0,0,0-.42.33L.81,20.05a2.58,2.58,0,0,0-.05,3.7l34,34h0l4.59,4.59a2.62,2.62,0,0,0,2.8.56,2.47,2.47,0,0,0,.85-.56l4.59-4.59,7.31-7.32a2.57,2.57,0,0,0,0-3.64Z"/><path class="cls-1" d="M79.72,21.94l-4.59-4.59L62.66,4.88,59.93,2.14l0,0a2.58,2.58,0,0,0-3.65,0l0,0L51.65,6.7,26.81,31.54a2.58,2.58,0,0,0,0,3.65L29.58,38a2.58,2.58,0,0,0,3.65,0L57.16,14A1.27,1.27,0,0,1,59,14l8.82,8.82a1.27,1.27,0,0,1,0,1.82l-8.75,8.76a1.29,1.29,0,0,1-1.83,0l-6.88-6.88a2.6,2.6,0,0,0-3.65,0l-2.76,2.77a2.58,2.58,0,0,0,0,3.65l7.79,7.79,4.58,4.59h0a2.58,2.58,0,0,0,3.65,0L79.72,25.59A2.58,2.58,0,0,0,79.72,21.94Z"/></g></g></svg>